<?xml version="1.0" standalone="no"?>
<!DOCTYPE svg PUBLIC "-//W3C//DTD SVG 20010904//EN"
 "http://www.w3.org/TR/2001/REC-SVG-20010904/DTD/svg10.dtd">
<svg version="1.0" xmlns="http://www.w3.org/2000/svg"
 width="181.000000pt" height="181.000000pt" viewBox="0 0 181.000000 181.000000"
 preserveAspectRatio="xMidYMid meet">
<metadata>
Created by potrace 1.14, written by Peter Selinger 2001-2017
</metadata>
<g transform="translate(0.000000,181.000000) scale(0.100000,-0.100000)"
fill="#000000" stroke="none">
<path d="M1023 1571 c-7 -23 -105 -225 -112 -231 -3 -3 -14 -21 -24 -40 -9
-19 -37 -71 -62 -115 -46 -81 -155 -300 -194 -387 -12 -27 -30 -67 -40 -90
-20 -45 -85 -208 -117 -293 -27 -73 -21 -90 36 -100 19 -3 51 -17 72 -31 45
-32 64 -29 108 17 30 30 243 376 335 544 50 89 135 240 145 255 6 8 14 24 19
35 5 11 45 90 90 175 44 85 81 162 81 171 0 23 -62 68 -102 73 -18 3 -55 8
-83 12 -27 4 -60 8 -72 8 -13 1 -23 3 -23 6 0 3 -12 6 -26 6 -16 1 -27 -4 -31
-15z m123 -51 c115 -20 111 -6 37 -133 -36 -61 -97 -168 -136 -237 -39 -69
-74 -127 -77 -130 -3 -3 -10 -14 -16 -25 -47 -86 -83 -149 -117 -205 -22 -36
-78 -132 -125 -215 -131 -231 -128 -226 -160 -219 -15 4 -30 8 -34 11 -6 3 37
130 67 198 7 17 32 75 55 130 60 144 269 552 307 600 4 6 33 61 63 123 30 61
59 112 65 112 6 0 38 -5 71 -10z m98 -167 c-144 -275 -249 -467 -276 -505 -11
-16 -16 -28 -11 -28 4 0 3 -4 -2 -8 -6 -4 -33 -45 -60 -92 -28 -46 -54 -92
-60 -101 -5 -9 -27 -45 -48 -80 -57 -97 -59 -100 -101 -161 -21 -32 -46 -58
-54 -58 -10 0 -12 4 -4 12 5 7 19 29 30 48 87 153 294 511 335 580 27 47 55
94 61 105 52 98 243 415 249 415 5 0 -22 -57 -59 -127z"/>
<path d="M370 1418 c-188 -197 -269 -278 -314 -314 l-39 -31 52 -106 c63 -131
110 -248 140 -347 13 -41 27 -80 32 -87 6 -6 36 -11 67 -11 31 -1 68 -4 82 -7
68 -18 70 -18 70 2 0 11 -5 45 -10 74 -6 30 -13 68 -16 84 -2 17 -7 37 -9 45
-2 8 -7 35 -10 60 -4 25 -10 63 -15 85 -5 22 -12 67 -15 100 -6 57 -5 64 29
120 20 33 68 103 106 155 144 195 150 208 103 252 -28 26 -97 68 -111 68 -4 0
-68 -64 -142 -142z m208 41 c3 -17 -23 -46 -211 -238 -80 -82 -148 -158 -151
-169 -4 -12 9 -68 32 -139 22 -65 54 -161 70 -213 17 -53 34 -103 37 -112 6
-14 0 -16 -35 -15 l-42 2 -47 135 c-37 106 -98 247 -148 342 -2 4 11 20 29 35
46 39 185 180 302 306 l98 106 32 -13 c17 -7 32 -19 34 -27z m-173 -301 c-30
-44 -55 -85 -55 -89 0 -11 -35 -20 -52 -14 -11 4 9 31 71 95 47 50 86 90 88
90 1 0 -22 -37 -52 -82z m-80 -160 c6 -6 64 -332 61 -336 -3 -2 -47 126 -51
148 0 3 -11 37 -24 75 -45 138 -43 126 -14 121 14 -3 27 -6 28 -8z"/>
<path d="M1349 1354 c-16 -20 -19 -107 -6 -174 4 -25 10 -58 12 -75 5 -34 31
-133 65 -246 l23 -76 -29 -39 c-40 -54 -144 -185 -163 -206 -9 -9 -32 -35 -51
-57 -19 -23 -47 -56 -62 -73 -51 -58 -44 -65 90 -97 50 -12 121 -6 155 12 27
14 148 122 263 233 29 29 56 54 61 55 5 2 22 21 39 42 35 43 36 34 -11 197
-32 113 -63 256 -71 325 -9 82 -23 122 -47 137 -46 30 -113 50 -183 54 -58 3
-74 1 -85 -12z m214 -68 c20 -9 38 -20 38 -24 1 -4 3 -16 4 -27 4 -25 15 -91
21 -119 2 -11 7 -39 10 -61 2 -22 12 -65 20 -95 8 -30 16 -64 18 -75 2 -11 15
-57 29 -102 l25 -83 -115 -107 c-64 -60 -125 -117 -137 -128 -63 -60 -121
-105 -134 -105 -8 0 4 18 29 43 203 202 299 305 302 327 3 14 -2 45 -10 70
-25 83 -64 224 -92 335 -15 61 -35 125 -44 143 -8 18 -13 31 -9 29 4 -2 24
-11 45 -21z m-90 -17 c9 -12 24 -45 32 -74 15 -52 19 -67 31 -135 4 -19 11
-41 17 -47 5 -7 7 -13 4 -13 -3 0 -2 -12 3 -27 23 -73 61 -200 64 -219 3 -16
-19 -44 -92 -116 -118 -114 -252 -259 -252 -271 0 -8 -88 -3 -95 5 -2 2 64 86
146 188 82 102 152 196 156 209 3 14 1 41 -5 60 -6 20 -22 74 -36 121 -15 47
-29 99 -32 115 -18 110 -29 192 -28 203 1 6 2 16 3 21 2 16 66 1 84 -20z"/>
</g>
</svg>
