<?xml version="1.0" standalone="no"?>
<!DOCTYPE svg PUBLIC "-//W3C//DTD SVG 20010904//EN"
 "http://www.w3.org/TR/2001/REC-SVG-20010904/DTD/svg10.dtd">
<svg version="1.0" xmlns="http://www.w3.org/2000/svg"
 width="1888.000000pt" height="1888.000000pt" viewBox="0 0 1888.000000 1888.000000"
 preserveAspectRatio="xMidYMid meet">
<metadata>
Created by potrace 1.14, written by Peter Selinger 2001-2017
</metadata>
<g transform="translate(0.000000,1888.000000) scale(0.100000,-0.100000)"
fill="#000000" stroke="none">
<path d="M9259 12665 c-2 -2 -40 -6 -84 -10 -44 -3 -87 -8 -95 -10 -8 -2 -37
-7 -65 -10 -27 -4 -57 -8 -65 -10 -8 -2 -28 -7 -45 -9 -16 -3 -61 -13 -100
-21 -38 -9 -80 -18 -93 -21 -12 -2 -75 -20 -139 -40 -468 -142 -892 -384
-1247 -714 -105 -97 -223 -222 -325 -345 -173 -209 -365 -534 -471 -800 -69
-171 -146 -420 -166 -535 -3 -14 -11 -56 -19 -95 -7 -38 -16 -92 -20 -120 -3
-27 -9 -66 -11 -85 -25 -175 -24 -585 1 -768 2 -18 7 -52 10 -75 32 -226 105
-501 195 -727 48 -120 126 -287 152 -322 11 -16 16 -28 12 -28 -4 0 -1 -8 7
-17 8 -10 23 -34 33 -53 57 -105 251 -378 335 -474 66 -74 162 -175 226 -236
434 -421 1027 -726 1620 -834 102 -19 222 -36 310 -43 171 -15 578 -8 684 12
9 1 43 6 76 9 69 8 317 61 390 83 263 80 427 146 634 254 284 149 534 333 774
572 283 282 521 630 671 982 21 50 45 104 52 120 43 102 134 415 158 545 3 19
8 44 10 55 3 18 11 72 21 145 2 14 6 52 10 85 3 33 8 78 10 100 5 46 6 415 1
460 -2 17 -7 66 -10 109 -4 43 -9 87 -11 97 -2 9 -7 39 -11 66 -13 91 -40 228
-61 303 -8 30 -18 69 -23 85 -86 319 -276 710 -485 997 -136 187 -382 453
-520 563 -27 22 -52 42 -55 45 -8 8 -132 104 -160 123 -298 205 -562 339 -865
439 -142 46 -363 101 -457 113 -16 2 -41 6 -56 9 -15 3 -49 8 -77 11 -27 3
-70 8 -95 12 -50 6 -555 14 -561 8z"/>
<path d="M2441 12650 c-4 -3 -32 -45 -62 -95 -31 -49 -92 -148 -136 -220 -44
-71 -145 -236 -225 -365 -80 -129 -178 -289 -218 -355 -40 -66 -88 -142 -105
-170 -59 -92 -358 -580 -369 -602 -6 -13 -14 -23 -18 -23 -5 0 -8 -4 -8 -9 0
-5 -52 -94 -116 -198 -64 -103 -153 -246 -197 -318 -44 -71 -98 -159 -120
-195 -22 -36 -57 -92 -77 -125 -21 -33 -86 -139 -145 -235 -59 -96 -144 -233
-188 -305 -44 -71 -96 -157 -117 -190 -21 -33 -80 -129 -131 -213 -52 -84
-101 -163 -109 -177 -8 -13 -33 -52 -54 -87 l-40 -63 0 -647 c-1 -642 -1 -648
19 -648 11 -1 702 -2 1535 -3 l1515 -2 0 -587 0 -586 832 0 833 0 1 32 c0 17
1 281 1 588 l1 556 366 0 c201 1 377 1 391 1 l25 1 -1 720 c0 396 -4 723 -7
726 -3 4 -178 7 -389 8 l-383 1 -1 1888 c0 1038 -4 1891 -8 1895 -8 8 -2283
10 -2295 2z m634 -2622 l0 -1163 -728 -1 c-400 -1 -727 0 -727 2 0 2 44 74 99
161 54 87 162 262 241 388 78 127 152 246 165 265 20 31 249 399 698 1120 77
124 154 248 172 275 17 28 40 65 51 83 10 17 21 32 24 32 3 0 5 -523 5 -1162z"/>
<path d="M15690 12535 c-40 -66 -112 -183 -160 -260 -48 -77 -131 -212 -184
-300 -54 -88 -108 -176 -121 -195 -24 -37 -193 -312 -210 -342 -5 -10 -59 -97
-120 -195 -131 -212 -132 -214 -142 -233 -4 -8 -11 -19 -16 -25 -11 -13 -204
-323 -217 -350 -6 -11 -18 -32 -28 -47 -9 -15 -63 -103 -120 -195 -57 -92
-130 -211 -162 -263 -33 -52 -88 -141 -122 -198 -35 -56 -78 -126 -96 -155
-29 -47 -83 -136 -137 -224 -33 -53 -203 -330 -270 -438 -34 -55 -106 -171
-159 -257 l-96 -157 0 -646 0 -645 23 -1 c12 0 703 0 1535 -1 l1512 0 0 -588
0 -589 835 1 834 1 0 471 c0 259 0 523 0 588 l1 116 379 0 c208 0 383 2 389 6
6 3 10 270 10 726 l0 720 -57 1 c-31 0 -206 1 -388 1 l-333 1 -1 46 c0 25 0
877 0 1894 0 1016 -3 1848 -7 1848 -4 1 -523 2 -1153 3 l-1145 1 -74 -120z
m710 -2504 l0 -1168 -730 0 -731 0 14 21 c22 33 564 903 1020 1636 104 168
207 332 227 365 21 33 74 117 117 187 43 70 79 128 81 128 1 0 2 -526 2 -1169z"/>
</g>
</svg>
